# xmcd CD database file
#
# Track frame offsets:
#	150
#	33650
#	60057
#	86105
#	115527
#	132775
#	159077
#	184255
#	219050
#
# Disc length: 3175 seconds
#
# Revision: 0
# Processed by: cddbd v1.5.1PL0 Copyright (c) Steve Scherf et al.
# Submitted via: CDex 1.51
#
DISCID=650c6509
DTITLE=Karin Hammar Good Vibe Project - With Friends
DYEAR=2003
DGENRE=Jazz
TTITLE0=NYC
TTITLE1=Travelling light
TTITLE2=Fula gubben
TTITLE3=Tango
TTITLE4=Gladjazz
TTITLE5=I will wait for you
TTITLE6=The green piece
TTITLE7=Vals
TTITLE8=Passionsfrukt
EXTD=YEAR: 2003
EXTT0=
EXTT1=
EXTT2=
EXTT3=
EXTT4=
EXTT5=
EXTT6=
EXTT7=
EXTT8=
PLAYORDER=
